<svg width="1156" height="91" viewBox="0 0 1156 91" fill="none" xmlns="http://www.w3.org/2000/svg">
<g clip-path="url(#clip0_1_159)">
<path d="M115.212 0C115.212 0 114.649 0 114.296 0C113.662 0 112.958 0 112.323 0C111.76 0 111.196 0 110.632 0.0708723C110.139 0.0708723 109.575 0.141745 109.082 0.212617C108.377 0.283489 107.743 0.354361 107.038 0.496106C106.686 0.566978 106.334 0.63785 105.981 0.708723C105.136 0.850467 104.361 1.06308 103.585 1.2757C103.374 1.2757 103.233 1.41745 103.022 1.41745C97.8777 2.97664 93.0155 5.74065 88.999 9.85125C88.6466 10.2056 88.3648 10.56 88.0829 10.9143L26.6363 72.7858L16.771 82.7079C12.4725 87.0312 6.55337 89.7243 0 89.7243H62.4332C62.4332 89.7243 62.9969 89.7243 63.3492 89.7243C63.9834 89.7243 64.6881 89.7243 65.3223 89.7243C65.886 89.7243 66.4497 89.7243 67.0135 89.6534C67.5067 89.6534 68.0705 89.5826 68.5637 89.5117C69.2684 89.4408 69.9026 89.2991 70.6073 89.2282C70.9596 89.2282 71.3119 89.0864 71.6642 89.0156C72.4394 88.8738 73.285 88.6612 74.0601 88.4486C74.2715 88.4486 74.4124 88.3069 74.6238 88.3069C79.7679 86.7477 84.6301 83.9837 88.6466 79.8731C88.999 79.5187 89.2808 79.1643 89.5627 78.81L95.6228 72.715L167.851 0H115.212Z" fill="white"/>
<path d="M184.269 14.9541C184.269 14.9541 183.706 14.9541 183.353 14.9541C182.719 14.9541 182.015 14.9541 181.38 14.9541C180.817 14.9541 180.253 14.9541 179.689 15.0249C179.196 15.0249 178.632 15.0958 178.139 15.1667C177.434 15.2375 176.8 15.3793 176.095 15.4502C175.743 15.521 175.391 15.5919 175.038 15.6628C174.193 15.8045 173.418 16.0171 172.643 16.2298L172.079 16.3715C166.935 17.9307 162.073 20.6947 158.056 24.8053C157.704 25.1597 157.422 25.514 157.14 25.8684L138.185 44.933L110.491 72.7858L100.626 82.7079C96.3275 87.0312 90.4083 89.7243 83.855 89.7243H146.288C146.288 89.7243 146.852 89.7243 147.204 89.7243C147.838 89.7243 148.543 89.7243 149.177 89.7243C149.741 89.7243 150.305 89.7243 150.868 89.6534C151.362 89.6534 151.925 89.5826 152.419 89.5117C153.123 89.5117 153.758 89.3699 154.462 89.2282C154.815 89.2282 155.167 89.0865 155.519 89.0156C156.294 88.8738 157.14 88.6612 157.915 88.4486L158.479 88.3069C163.623 86.7477 168.485 83.9836 172.502 79.8731C172.854 79.5187 173.136 79.1643 173.418 78.81L179.478 72.715L236.978 14.8832H184.34L184.269 14.9541Z" fill="white"/>
<path d="M305.894 29.8372H253.256C253.256 29.8372 252.692 29.8372 252.34 29.8372C251.706 29.8372 251.001 29.8372 250.367 29.8372C249.803 29.8372 249.239 29.8372 248.676 29.9081C248.182 29.9081 247.619 29.979 247.125 30.0498C246.421 30.1207 245.787 30.1916 245.082 30.3333C244.73 30.4042 244.377 30.4751 244.025 30.5459C243.25 30.6877 242.404 30.9003 241.629 31.1129C241.418 31.1129 241.277 31.2547 241.065 31.2547C235.921 32.8139 231.059 35.5779 227.043 39.6885C226.69 40.0428 226.408 40.3972 226.126 40.7515L194.276 72.7858L184.34 82.7788C180.041 87.102 174.193 89.7243 167.639 89.7243H230.073C230.073 89.7243 230.636 89.7243 230.989 89.7243C231.623 89.7243 232.327 89.7243 232.962 89.7243C233.525 89.7243 234.089 89.7243 234.653 89.6534C235.146 89.6534 235.71 89.5825 236.203 89.5117C236.908 89.4408 237.542 89.2991 238.247 89.2282C238.599 89.2282 238.951 89.0864 239.304 89.0156C240.079 88.8738 240.924 88.6612 241.7 88.4486L242.263 88.3068C247.407 86.7477 252.269 83.9836 256.286 79.873C256.638 79.5187 256.92 79.1643 257.202 78.81L263.262 72.7149L277.144 58.7531L305.894 29.8372Z" fill="white"/>
<path d="M783.797 73.6363C777.385 86.0389 766.392 91 751.876 91C728.833 91 717.911 77.109 717.911 59.7453C717.911 39.1923 731.722 28.278 751.805 28.278C764.56 28.278 777.596 33.2391 782.881 45.3582L776.68 48.264C772.522 38.4836 763.291 34.373 751.876 34.373C734.823 34.373 725.31 43.6573 725.31 60.6666C725.31 74.4159 734.541 84.6215 752.58 84.6215C764.348 84.6215 772.522 79.6604 777.455 70.5179L783.867 73.6363H783.797Z" fill="white"/>
<path d="M794.931 29.6955H802.118V55.0678H848.908V29.6955H856.095V89.5117H848.908V61.4463H802.118V89.5117H794.931V29.6955Z" fill="white"/>
<path d="M933.326 64.919C933.326 86.5351 916.555 91 902.744 91C888.933 91 872.162 86.5351 872.162 64.919V29.6955H879.349V64.919C879.349 78.6682 888.087 84.905 902.744 84.905C917.401 84.905 926.139 78.6682 926.139 64.919V29.6955H933.326V64.919Z" fill="white"/>
<path d="M956.298 56.627H981.807C992.166 56.627 999.988 55.1386 999.988 46.3505C999.988 37.5623 992.236 36.1449 981.807 36.1449H956.298V56.627ZM949.111 29.6955H983.498C993.011 29.6955 1006.89 31.7508 1006.89 46.4214C1006.89 58.8949 995.337 62.5802 988.149 62.8637L1007.81 89.5117H998.93L979.764 63.0055H956.369V89.5117H949.181V29.6955H949.111Z" fill="white"/>
<path d="M1083.7 73.6363C1077.29 86.0389 1066.3 91 1051.78 91C1028.74 91 1017.82 77.109 1017.82 59.7453C1017.82 39.1923 1031.63 28.278 1051.64 28.278C1064.39 28.278 1077.43 33.2391 1082.71 45.3582L1076.51 48.264C1072.36 38.4836 1063.13 34.373 1051.71 34.373C1034.73 34.373 1025.14 43.6573 1025.14 60.6666C1025.14 74.4159 1034.37 84.6215 1052.34 84.6215C1064.11 84.6215 1072.29 79.6604 1077.22 70.5179L1083.63 73.6363H1083.7Z" fill="white"/>
<path d="M1094.84 29.6955H1102.02V55.0678H1148.81V29.6955H1156V89.5117H1148.81V61.4463H1102.02V89.5117H1094.84V29.6955Z" fill="white"/>
<path d="M349.442 44.2243H349.231V89.5117H338.943V29.6955H354.586L373.119 74.0615L392.004 29.6955H407.295V89.5117H397.007V44.2243H396.866L377.77 89.5117H368.539L349.442 44.2243Z" fill="white"/>
<path d="M463.034 65.7695L450.632 39.1215L438.23 65.7695H463.105H463.034ZM444.008 29.6955H457.256L486.147 89.5117H473.886L467.685 75.7625H433.438L427.167 89.5117H414.835L444.149 29.6955H444.008Z" fill="white"/>
<path d="M493.828 29.6955H506.089L545.832 72.9276V29.6955H556.966V89.5117H546.325L504.962 44.7913V89.5117H493.828V29.6955Z" fill="white"/>
<path d="M571.059 29.6955H583.32L623.063 72.9276V29.6955H634.197V89.5117H623.556L582.122 44.7913V89.5117H571.059V29.6955Z" fill="white"/>
<path d="M690.218 65.7695L677.816 39.1215L665.414 65.7695H690.288H690.218ZM671.121 29.6955H684.369L713.26 89.5117H700.999L694.798 75.7625H660.551L654.28 89.5117H641.948L671.262 29.6955H671.121Z" fill="white"/>
</g>
<defs>
<clipPath id="clip0_1_159">
<rect width="1156" height="91" fill="white"/>
</clipPath>
</defs>
</svg>
