<svg preserveAspectRatio="none" width="100%" height="100%" overflow="visible" style="display: block;" viewBox="0 0 316 25" fill="none" xmlns="http://www.w3.org/2000/svg">
<g id="Group">
<path id="Vector" d="M31.4941 0C31.4941 0 31.34 0 31.2436 0C31.0703 0 30.8777 0 30.7043 0C30.5502 0 30.3961 0 30.242 0.0194704C30.1072 0.0194704 29.9531 0.0389408 29.8182 0.0584112C29.6256 0.0778816 29.4522 0.097352 29.2596 0.136293C29.1633 0.136293 29.067 0.175234 28.9707 0.194704C28.7395 0.233645 28.5276 0.292056 28.3158 0.350467C28.258 0.350467 28.2194 0.389408 28.1617 0.389408C26.7555 0.817757 25.4264 1.5771 24.3284 2.70639C24.2321 2.80374 24.1551 2.90109 24.078 2.99844L7.28119 19.9961L4.58446 22.722C3.40945 23.9097 1.79141 24.6495 0 24.6495H17.0665C17.0665 24.6495 17.2206 24.6495 17.3169 24.6495C17.4903 24.6495 17.6829 24.6495 17.8563 24.6495C18.0104 24.6495 18.1645 24.6495 18.3186 24.6301C18.4534 24.6301 18.6075 24.6106 18.7423 24.5911C18.935 24.5717 19.1083 24.5327 19.3009 24.5132C19.3973 24.5132 19.4936 24.4743 19.5899 24.4548C19.8018 24.4159 20.0329 24.3575 20.2448 24.2991C20.3026 24.2991 20.3411 24.2601 20.3989 24.2601C21.8051 23.8318 23.1342 23.0724 24.2321 21.9431C24.3284 21.8458 24.4055 21.7484 24.4825 21.6511L26.1391 19.9766L45.8831 0H31.4941Z" fill="var(--fill-0, #F37321)"/>
<path id="Vector_2" d="M50.3712 4.10826C50.3712 4.10826 50.2171 4.10826 50.1208 4.10826C49.9475 4.10826 49.7548 4.10826 49.5815 4.10826C49.4274 4.10826 49.2733 4.10826 49.1192 4.12773C48.9843 4.12773 48.8302 4.1472 48.6954 4.16667C48.5028 4.18614 48.3294 4.20561 48.1368 4.24455C48.0405 4.24455 47.9442 4.28349 47.8478 4.30296C47.6167 4.3419 47.4048 4.40031 47.1929 4.45872L47.0388 4.49766C45.6327 4.92601 44.3036 5.68536 43.2056 6.81464C43.1093 6.91199 43.0322 7.00935 42.9552 7.1067L37.7736 12.3442L30.2035 19.9961L27.5067 22.722C26.3317 23.9097 24.7137 24.6495 22.9223 24.6495H39.9888C39.9888 24.6495 40.1429 24.6495 40.2392 24.6495C40.4126 24.6495 40.6052 24.6495 40.7785 24.6495C40.9326 24.6495 41.0867 24.6495 41.2408 24.6495C41.3757 24.6495 41.5298 24.6301 41.6646 24.6106C41.8572 24.5911 42.0306 24.5717 42.2232 24.5327C42.3195 24.5327 42.4158 24.4938 42.5122 24.4743C42.724 24.4354 42.9552 24.3769 43.1671 24.3185L43.3212 24.2796C44.7273 23.8512 46.0564 23.0919 47.1544 21.9626C47.2507 21.8653 47.3278 21.7679 47.4048 21.6706L49.0614 19.9961L64.7795 4.12773H50.3905L50.3712 4.10826Z" fill="var(--fill-0, #F37321)"/>
<path id="Vector_3" d="M83.6182 8.19704H69.2291C69.2291 8.19704 69.075 8.19704 68.9787 8.19704C68.8054 8.19704 68.6127 8.19704 68.4394 8.19704C68.2853 8.19704 68.1312 8.19704 67.9771 8.21651C67.8422 8.21651 67.6881 8.23598 67.5533 8.25545C67.3607 8.27492 67.1873 8.29439 66.9947 8.33333C66.8984 8.33333 66.8021 8.37227 66.7058 8.39174C66.4939 8.43069 66.2627 8.4891 66.0508 8.54751C65.9931 8.54751 65.9545 8.58645 65.8967 8.58645C64.4906 9.0148 63.1615 9.77414 62.0635 10.9034C61.9672 11.0008 61.8902 11.0981 61.8131 11.1955L53.1065 19.9961L50.3905 22.7414C49.2155 23.9097 47.6167 24.6495 45.8253 24.6495H62.8918C62.8918 24.6495 63.0459 24.6495 63.1422 24.6495C63.3156 24.6495 63.5082 24.6495 63.6816 24.6495C63.8357 24.6495 63.9898 24.6495 64.1439 24.6301C64.2787 24.6301 64.4328 24.6106 64.5676 24.5911C64.7603 24.5717 64.9336 24.5327 65.1262 24.5132C65.2226 24.5132 65.3189 24.4743 65.4152 24.4548C65.6271 24.4159 65.8582 24.3575 66.0701 24.2991L66.2242 24.2601C67.6304 23.8318 68.9595 23.0724 70.0574 21.9431C70.1537 21.8458 70.2308 21.7484 70.3078 21.6511L71.9644 19.9766L75.7591 16.141L83.6182 8.19704Z" fill="var(--fill-0, #F37321)"/>
<path id="Vector_4" d="M214.256 20.2298C212.503 23.6371 209.498 25 205.53 25C199.231 25 196.246 21.1838 196.246 16.4136C196.246 10.7671 200.021 7.76869 205.511 7.76869C208.997 7.76869 212.561 9.13162 214.005 12.4611L212.31 13.2593C211.174 10.5724 208.651 9.44315 205.53 9.44315C200.868 9.44315 198.268 11.9938 198.268 16.6667C198.268 20.4439 200.791 23.2477 205.723 23.2477C208.939 23.2477 211.174 21.8847 212.522 19.3731L214.275 20.2298H214.256Z" fill="var(--fill-0, white)"/>
<path id="Vector_5" d="M217.299 8.1581H219.264V15.1285H232.054V8.1581H234.019V24.5911H232.054V16.8808H219.264V24.5911H217.299V8.1581Z" fill="var(--fill-0, white)"/>
<path id="Vector_6" d="M255.131 17.8349C255.131 23.7734 250.546 25 246.771 25C242.995 25 238.411 23.7734 238.411 17.8349V8.1581H240.376V17.8349C240.376 21.6122 242.764 23.3255 246.771 23.3255C250.777 23.3255 253.166 21.6122 253.166 17.8349V8.1581H255.131V17.8349Z" fill="var(--fill-0, white)"/>
<path id="Vector_7" d="M261.41 15.5569H268.383C271.215 15.5569 273.353 15.148 273.353 12.7336C273.353 10.3193 271.234 9.92991 268.383 9.92991H261.41V15.5569ZM259.446 8.1581H268.846C271.446 8.1581 275.241 8.72274 275.241 12.7531C275.241 16.1799 272.082 17.1729 270.117 17.2702L275.491 24.5911H273.064L267.825 17.3092H261.43V24.5911H259.465V8.1581H259.446Z" fill="var(--fill-0, white)"/>
<path id="Vector_8" d="M296.237 20.2298C294.484 23.6371 291.479 25 287.511 25C281.212 25 278.226 21.1838 278.226 16.4136C278.226 10.7671 282.002 7.76869 287.472 7.76869C290.959 7.76869 294.522 9.13162 295.967 12.4611L294.272 13.2593C293.135 10.5724 290.612 9.44315 287.492 9.44315C282.849 9.44315 280.23 11.9938 280.23 16.6667C280.23 20.4439 282.753 23.2477 287.665 23.2477C290.882 23.2477 293.116 21.8847 294.465 19.3731L296.217 20.2298H296.237Z" fill="var(--fill-0, white)"/>
<path id="Vector_9" d="M299.28 8.1581H301.245V15.1285H314.035V8.1581H316V24.5911H314.035V16.8808H301.245V24.5911H299.28V8.1581Z" fill="var(--fill-0, white)"/>
<path id="Vector_10" d="M95.5223 12.1495H95.4646V24.5911H92.6522V8.1581H96.9285L101.995 20.3466L107.157 8.1581H111.337V24.5911H108.524V12.1495H108.486L103.266 24.5911H100.742L95.5223 12.1495Z" fill="var(--fill-0, white)"/>
<path id="Vector_11" d="M126.573 18.0685L123.183 10.7477L119.793 18.0685H126.593H126.573ZM121.372 8.1581H124.994L132.891 24.5911H129.54L127.845 20.8139H118.483L116.769 24.5911H113.398L121.411 8.1581H121.372Z" fill="var(--fill-0, white)"/>
<path id="Vector_12" d="M134.991 8.1581H138.343L149.207 20.035V8.1581H152.25V24.5911H149.342L138.034 12.3053V24.5911H134.991V8.1581Z" fill="var(--fill-0, white)"/>
<path id="Vector_13" d="M156.103 8.1581H159.454L170.318 20.035V8.1581H173.362V24.5911H170.453L159.127 12.3053V24.5911H156.103V8.1581Z" fill="var(--fill-0, white)"/>
<path id="Vector_14" d="M188.675 18.0685L185.285 10.7477L181.895 18.0685H188.695H188.675ZM183.455 8.1581H187.077L194.974 24.5911H191.623L189.927 20.8139H180.566L178.852 24.5911H175.481L183.494 8.1581H183.455Z" fill="var(--fill-0, white)"/>
</g>
</svg>
