<svg preserveAspectRatio="none" width="100%" height="100%" overflow="visible" style="display: block;" viewBox="0 0 18 18" fill="none" xmlns="http://www.w3.org/2000/svg">
<g id="play">
<path id="Vector" d="M3.95109 2.99874C3.81889 3.22717 3.74932 3.48643 3.7494 3.75035V14.2497C3.74932 14.5136 3.81889 14.7728 3.95109 15.0013C4.08328 15.2297 4.27342 15.4192 4.50231 15.5507C4.73119 15.6821 4.99071 15.7509 5.25468 15.75C5.51864 15.7491 5.77769 15.6786 6.00568 15.5456L15.0068 10.2959C15.2337 10.1638 15.4219 9.97441 15.5526 9.74675C15.6833 9.51909 15.752 9.26112 15.7518 8.9986C15.7516 8.73609 15.6824 8.47823 15.5513 8.2508C15.4202 8.02337 15.2316 7.83434 15.0045 7.70259L6.00568 2.45443C5.77769 2.32142 5.51864 2.2509 5.25468 2.25001C4.99071 2.24911 4.73119 2.31787 4.50231 2.44933C4.27342 2.58079 4.08328 2.77031 3.95109 2.99874Z" stroke="var(--stroke-0, #222222)" stroke-width="2" stroke-linecap="round"/>
</g>
</svg>
